<mxfile host="app.diagrams.net" modified="2023-09-17T16:22:41.937Z" agent="Mozilla/5.0 (Windows NT 10.0; Win64; x64) AppleWebKit/537.36 (KHTML, like Gecko) Chrome/116.0.0.0 Safari/537.36" etag="_lqIy94Ff5OoeUYwiBlF" version="21.7.5" type="device">
  <diagram name="Page-1" id="2X8nEsbDzmcMEWOCZJVh">
    <mxGraphModel dx="1170" dy="446" grid="1" gridSize="10" guides="1" tooltips="1" connect="1" arrows="1" fold="1" page="1" pageScale="1" pageWidth="850" pageHeight="1100" math="0" shadow="0">
      <root>
        <mxCell id="0" />
        <mxCell id="1" parent="0" />
        <mxCell id="CbJpw0u9HvEEYeUa20cJ-1" value="" style="swimlane;startSize=0;" vertex="1" parent="1">
          <mxGeometry x="310" y="77" width="220" height="360" as="geometry">
            <mxRectangle x="250" y="90" width="50" height="40" as="alternateBounds" />
          </mxGeometry>
        </mxCell>
        <mxCell id="CbJpw0u9HvEEYeUa20cJ-5" value="" style="rounded=0;whiteSpace=wrap;html=1;" vertex="1" parent="CbJpw0u9HvEEYeUa20cJ-1">
          <mxGeometry x="60" y="10" width="100" height="20" as="geometry" />
        </mxCell>
        <mxCell id="CbJpw0u9HvEEYeUa20cJ-6" value="Money" style="text;html=1;strokeColor=none;fillColor=none;align=center;verticalAlign=middle;whiteSpace=wrap;rounded=0;" vertex="1" parent="CbJpw0u9HvEEYeUa20cJ-1">
          <mxGeometry x="65" y="15" width="90" height="10" as="geometry" />
        </mxCell>
        <mxCell id="CbJpw0u9HvEEYeUa20cJ-9" value="House" style="text;html=1;strokeColor=none;fillColor=none;align=center;verticalAlign=middle;whiteSpace=wrap;rounded=0;" vertex="1" parent="CbJpw0u9HvEEYeUa20cJ-1">
          <mxGeometry x="-5" y="65" width="90" height="10" as="geometry" />
        </mxCell>
        <mxCell id="CbJpw0u9HvEEYeUa20cJ-10" value="Image" style="text;html=1;strokeColor=none;fillColor=none;align=center;verticalAlign=middle;whiteSpace=wrap;rounded=0;" vertex="1" parent="CbJpw0u9HvEEYeUa20cJ-1">
          <mxGeometry x="-5" y="75" width="90" height="10" as="geometry" />
        </mxCell>
        <mxCell id="CbJpw0u9HvEEYeUa20cJ-19" value="" style="group" vertex="1" connectable="0" parent="CbJpw0u9HvEEYeUa20cJ-1">
          <mxGeometry x="10" y="40" width="200" height="60" as="geometry" />
        </mxCell>
        <mxCell id="CbJpw0u9HvEEYeUa20cJ-4" value="" style="rounded=0;whiteSpace=wrap;html=1;" vertex="1" parent="CbJpw0u9HvEEYeUa20cJ-19">
          <mxGeometry width="200" height="60" as="geometry" />
        </mxCell>
        <mxCell id="CbJpw0u9HvEEYeUa20cJ-8" value="" style="whiteSpace=wrap;html=1;aspect=fixed;" vertex="1" parent="CbJpw0u9HvEEYeUa20cJ-19">
          <mxGeometry x="10" y="10" width="40" height="40" as="geometry" />
        </mxCell>
        <mxCell id="CbJpw0u9HvEEYeUa20cJ-11" value="" style="rounded=1;whiteSpace=wrap;html=1;" vertex="1" parent="CbJpw0u9HvEEYeUa20cJ-19">
          <mxGeometry x="160" y="10" width="30" height="10" as="geometry" />
        </mxCell>
        <mxCell id="CbJpw0u9HvEEYeUa20cJ-12" value="" style="rounded=1;whiteSpace=wrap;html=1;" vertex="1" parent="CbJpw0u9HvEEYeUa20cJ-19">
          <mxGeometry x="160" y="25" width="30" height="10" as="geometry" />
        </mxCell>
        <mxCell id="CbJpw0u9HvEEYeUa20cJ-13" value="" style="rounded=1;whiteSpace=wrap;html=1;" vertex="1" parent="CbJpw0u9HvEEYeUa20cJ-19">
          <mxGeometry x="160" y="40" width="30" height="10" as="geometry" />
        </mxCell>
        <mxCell id="CbJpw0u9HvEEYeUa20cJ-14" value="" style="rounded=1;whiteSpace=wrap;html=1;" vertex="1" parent="CbJpw0u9HvEEYeUa20cJ-19">
          <mxGeometry x="55" y="40" width="100" height="10" as="geometry" />
        </mxCell>
        <mxCell id="CbJpw0u9HvEEYeUa20cJ-15" value="Progress_bar" style="text;html=1;strokeColor=none;fillColor=none;align=center;verticalAlign=middle;whiteSpace=wrap;rounded=0;" vertex="1" parent="CbJpw0u9HvEEYeUa20cJ-19">
          <mxGeometry x="60" y="40" width="90" height="10" as="geometry" />
        </mxCell>
        <mxCell id="CbJpw0u9HvEEYeUa20cJ-17" value="" style="rounded=1;whiteSpace=wrap;html=1;" vertex="1" parent="CbJpw0u9HvEEYeUa20cJ-19">
          <mxGeometry x="55" y="10" width="100" height="20" as="geometry" />
        </mxCell>
        <mxCell id="CbJpw0u9HvEEYeUa20cJ-18" value="Information" style="text;html=1;strokeColor=none;fillColor=none;align=center;verticalAlign=middle;whiteSpace=wrap;rounded=0;" vertex="1" parent="CbJpw0u9HvEEYeUa20cJ-19">
          <mxGeometry x="60" y="15" width="90" height="10" as="geometry" />
        </mxCell>
        <mxCell id="CbJpw0u9HvEEYeUa20cJ-34" value="" style="group" vertex="1" connectable="0" parent="CbJpw0u9HvEEYeUa20cJ-1">
          <mxGeometry x="10" y="110" width="200" height="60" as="geometry" />
        </mxCell>
        <mxCell id="CbJpw0u9HvEEYeUa20cJ-35" value="" style="rounded=0;whiteSpace=wrap;html=1;" vertex="1" parent="CbJpw0u9HvEEYeUa20cJ-34">
          <mxGeometry width="200" height="60" as="geometry" />
        </mxCell>
        <mxCell id="CbJpw0u9HvEEYeUa20cJ-36" value="" style="whiteSpace=wrap;html=1;aspect=fixed;" vertex="1" parent="CbJpw0u9HvEEYeUa20cJ-34">
          <mxGeometry x="10" y="10" width="40" height="40" as="geometry" />
        </mxCell>
        <mxCell id="CbJpw0u9HvEEYeUa20cJ-37" value="" style="rounded=1;whiteSpace=wrap;html=1;" vertex="1" parent="CbJpw0u9HvEEYeUa20cJ-34">
          <mxGeometry x="160" y="10" width="30" height="10" as="geometry" />
        </mxCell>
        <mxCell id="CbJpw0u9HvEEYeUa20cJ-38" value="" style="rounded=1;whiteSpace=wrap;html=1;" vertex="1" parent="CbJpw0u9HvEEYeUa20cJ-34">
          <mxGeometry x="160" y="25" width="30" height="10" as="geometry" />
        </mxCell>
        <mxCell id="CbJpw0u9HvEEYeUa20cJ-39" value="" style="rounded=1;whiteSpace=wrap;html=1;" vertex="1" parent="CbJpw0u9HvEEYeUa20cJ-34">
          <mxGeometry x="160" y="40" width="30" height="10" as="geometry" />
        </mxCell>
        <mxCell id="CbJpw0u9HvEEYeUa20cJ-40" value="" style="rounded=1;whiteSpace=wrap;html=1;" vertex="1" parent="CbJpw0u9HvEEYeUa20cJ-34">
          <mxGeometry x="55" y="40" width="100" height="10" as="geometry" />
        </mxCell>
        <mxCell id="CbJpw0u9HvEEYeUa20cJ-41" value="Progress_bar" style="text;html=1;strokeColor=none;fillColor=none;align=center;verticalAlign=middle;whiteSpace=wrap;rounded=0;" vertex="1" parent="CbJpw0u9HvEEYeUa20cJ-34">
          <mxGeometry x="60" y="40" width="90" height="10" as="geometry" />
        </mxCell>
        <mxCell id="CbJpw0u9HvEEYeUa20cJ-42" value="" style="rounded=1;whiteSpace=wrap;html=1;" vertex="1" parent="CbJpw0u9HvEEYeUa20cJ-34">
          <mxGeometry x="55" y="10" width="100" height="20" as="geometry" />
        </mxCell>
        <mxCell id="CbJpw0u9HvEEYeUa20cJ-43" value="Information" style="text;html=1;strokeColor=none;fillColor=none;align=center;verticalAlign=middle;whiteSpace=wrap;rounded=0;" vertex="1" parent="CbJpw0u9HvEEYeUa20cJ-34">
          <mxGeometry x="60" y="15" width="90" height="10" as="geometry" />
        </mxCell>
        <mxCell id="CbJpw0u9HvEEYeUa20cJ-44" value="" style="group" vertex="1" connectable="0" parent="CbJpw0u9HvEEYeUa20cJ-1">
          <mxGeometry x="10" y="180" width="200" height="60" as="geometry" />
        </mxCell>
        <mxCell id="CbJpw0u9HvEEYeUa20cJ-45" value="" style="rounded=0;whiteSpace=wrap;html=1;" vertex="1" parent="CbJpw0u9HvEEYeUa20cJ-44">
          <mxGeometry width="200" height="60" as="geometry" />
        </mxCell>
        <mxCell id="CbJpw0u9HvEEYeUa20cJ-46" value="" style="whiteSpace=wrap;html=1;aspect=fixed;" vertex="1" parent="CbJpw0u9HvEEYeUa20cJ-44">
          <mxGeometry x="10" y="10" width="40" height="40" as="geometry" />
        </mxCell>
        <mxCell id="CbJpw0u9HvEEYeUa20cJ-47" value="" style="rounded=1;whiteSpace=wrap;html=1;" vertex="1" parent="CbJpw0u9HvEEYeUa20cJ-44">
          <mxGeometry x="160" y="10" width="30" height="10" as="geometry" />
        </mxCell>
        <mxCell id="CbJpw0u9HvEEYeUa20cJ-48" value="" style="rounded=1;whiteSpace=wrap;html=1;" vertex="1" parent="CbJpw0u9HvEEYeUa20cJ-44">
          <mxGeometry x="160" y="25" width="30" height="10" as="geometry" />
        </mxCell>
        <mxCell id="CbJpw0u9HvEEYeUa20cJ-49" value="" style="rounded=1;whiteSpace=wrap;html=1;" vertex="1" parent="CbJpw0u9HvEEYeUa20cJ-44">
          <mxGeometry x="160" y="40" width="30" height="10" as="geometry" />
        </mxCell>
        <mxCell id="CbJpw0u9HvEEYeUa20cJ-50" value="" style="rounded=1;whiteSpace=wrap;html=1;" vertex="1" parent="CbJpw0u9HvEEYeUa20cJ-44">
          <mxGeometry x="55" y="40" width="100" height="10" as="geometry" />
        </mxCell>
        <mxCell id="CbJpw0u9HvEEYeUa20cJ-51" value="Progress_bar" style="text;html=1;strokeColor=none;fillColor=none;align=center;verticalAlign=middle;whiteSpace=wrap;rounded=0;" vertex="1" parent="CbJpw0u9HvEEYeUa20cJ-44">
          <mxGeometry x="60" y="40" width="90" height="10" as="geometry" />
        </mxCell>
        <mxCell id="CbJpw0u9HvEEYeUa20cJ-52" value="" style="rounded=1;whiteSpace=wrap;html=1;" vertex="1" parent="CbJpw0u9HvEEYeUa20cJ-44">
          <mxGeometry x="55" y="10" width="100" height="20" as="geometry" />
        </mxCell>
        <mxCell id="CbJpw0u9HvEEYeUa20cJ-53" value="Information" style="text;html=1;strokeColor=none;fillColor=none;align=center;verticalAlign=middle;whiteSpace=wrap;rounded=0;" vertex="1" parent="CbJpw0u9HvEEYeUa20cJ-44">
          <mxGeometry x="60" y="15" width="90" height="10" as="geometry" />
        </mxCell>
        <mxCell id="CbJpw0u9HvEEYeUa20cJ-54" value="" style="group" vertex="1" connectable="0" parent="CbJpw0u9HvEEYeUa20cJ-1">
          <mxGeometry x="10" y="250" width="200" height="60" as="geometry" />
        </mxCell>
        <mxCell id="CbJpw0u9HvEEYeUa20cJ-55" value="" style="rounded=0;whiteSpace=wrap;html=1;" vertex="1" parent="CbJpw0u9HvEEYeUa20cJ-54">
          <mxGeometry width="200" height="60" as="geometry" />
        </mxCell>
        <mxCell id="CbJpw0u9HvEEYeUa20cJ-56" value="" style="whiteSpace=wrap;html=1;aspect=fixed;" vertex="1" parent="CbJpw0u9HvEEYeUa20cJ-54">
          <mxGeometry x="10" y="10" width="40" height="40" as="geometry" />
        </mxCell>
        <mxCell id="CbJpw0u9HvEEYeUa20cJ-57" value="" style="rounded=1;whiteSpace=wrap;html=1;" vertex="1" parent="CbJpw0u9HvEEYeUa20cJ-54">
          <mxGeometry x="160" y="10" width="30" height="10" as="geometry" />
        </mxCell>
        <mxCell id="CbJpw0u9HvEEYeUa20cJ-58" value="" style="rounded=1;whiteSpace=wrap;html=1;" vertex="1" parent="CbJpw0u9HvEEYeUa20cJ-54">
          <mxGeometry x="160" y="25" width="30" height="10" as="geometry" />
        </mxCell>
        <mxCell id="CbJpw0u9HvEEYeUa20cJ-59" value="" style="rounded=1;whiteSpace=wrap;html=1;" vertex="1" parent="CbJpw0u9HvEEYeUa20cJ-54">
          <mxGeometry x="160" y="40" width="30" height="10" as="geometry" />
        </mxCell>
        <mxCell id="CbJpw0u9HvEEYeUa20cJ-60" value="" style="rounded=1;whiteSpace=wrap;html=1;" vertex="1" parent="CbJpw0u9HvEEYeUa20cJ-54">
          <mxGeometry x="55" y="40" width="100" height="10" as="geometry" />
        </mxCell>
        <mxCell id="CbJpw0u9HvEEYeUa20cJ-61" value="Progress_bar" style="text;html=1;strokeColor=none;fillColor=none;align=center;verticalAlign=middle;whiteSpace=wrap;rounded=0;" vertex="1" parent="CbJpw0u9HvEEYeUa20cJ-54">
          <mxGeometry x="60" y="40" width="90" height="10" as="geometry" />
        </mxCell>
        <mxCell id="CbJpw0u9HvEEYeUa20cJ-62" value="" style="rounded=1;whiteSpace=wrap;html=1;" vertex="1" parent="CbJpw0u9HvEEYeUa20cJ-54">
          <mxGeometry x="55" y="10" width="100" height="20" as="geometry" />
        </mxCell>
        <mxCell id="CbJpw0u9HvEEYeUa20cJ-63" value="Information" style="text;html=1;strokeColor=none;fillColor=none;align=center;verticalAlign=middle;whiteSpace=wrap;rounded=0;" vertex="1" parent="CbJpw0u9HvEEYeUa20cJ-54">
          <mxGeometry x="60" y="15" width="90" height="10" as="geometry" />
        </mxCell>
        <mxCell id="CbJpw0u9HvEEYeUa20cJ-64" value="&lt;font style=&quot;font-size: 16px;&quot;&gt;Mobile View&lt;/font&gt;" style="text;html=1;strokeColor=none;fillColor=none;align=center;verticalAlign=middle;whiteSpace=wrap;rounded=0;" vertex="1" parent="1">
          <mxGeometry x="310" y="30" width="220" height="30" as="geometry" />
        </mxCell>
        <mxCell id="CbJpw0u9HvEEYeUa20cJ-65" value="" style="rounded=1;whiteSpace=wrap;html=1;" vertex="1" parent="1">
          <mxGeometry x="200" y="510" width="448" height="271" as="geometry" />
        </mxCell>
        <mxCell id="CbJpw0u9HvEEYeUa20cJ-75" value="" style="group" vertex="1" connectable="0" parent="1">
          <mxGeometry x="220" y="536" width="408" height="51" as="geometry" />
        </mxCell>
        <mxCell id="CbJpw0u9HvEEYeUa20cJ-66" value="" style="rounded=0;whiteSpace=wrap;html=1;" vertex="1" parent="CbJpw0u9HvEEYeUa20cJ-75">
          <mxGeometry width="408" height="51" as="geometry" />
        </mxCell>
        <mxCell id="CbJpw0u9HvEEYeUa20cJ-67" value="" style="whiteSpace=wrap;html=1;aspect=fixed;" vertex="1" parent="CbJpw0u9HvEEYeUa20cJ-75">
          <mxGeometry x="10" y="7.25" width="36.5" height="36.5" as="geometry" />
        </mxCell>
        <mxCell id="CbJpw0u9HvEEYeUa20cJ-68" value="" style="rounded=1;whiteSpace=wrap;html=1;" vertex="1" parent="CbJpw0u9HvEEYeUa20cJ-75">
          <mxGeometry x="90" y="33.75" width="200" height="10" as="geometry" />
        </mxCell>
        <mxCell id="CbJpw0u9HvEEYeUa20cJ-69" value="" style="rounded=1;whiteSpace=wrap;html=1;" vertex="1" parent="CbJpw0u9HvEEYeUa20cJ-75">
          <mxGeometry x="90" y="3.75" width="200" height="20.25" as="geometry" />
        </mxCell>
        <mxCell id="CbJpw0u9HvEEYeUa20cJ-70" value="" style="rounded=1;whiteSpace=wrap;html=1;" vertex="1" parent="CbJpw0u9HvEEYeUa20cJ-75">
          <mxGeometry x="330" y="3.75" width="60" height="10.25" as="geometry" />
        </mxCell>
        <mxCell id="CbJpw0u9HvEEYeUa20cJ-73" value="" style="rounded=1;whiteSpace=wrap;html=1;" vertex="1" parent="CbJpw0u9HvEEYeUa20cJ-75">
          <mxGeometry x="330" y="17.75" width="60" height="10.25" as="geometry" />
        </mxCell>
        <mxCell id="CbJpw0u9HvEEYeUa20cJ-74" value="" style="rounded=1;whiteSpace=wrap;html=1;" vertex="1" parent="CbJpw0u9HvEEYeUa20cJ-75">
          <mxGeometry x="331" y="32.75" width="60" height="10.25" as="geometry" />
        </mxCell>
        <mxCell id="CbJpw0u9HvEEYeUa20cJ-102" value="Information" style="text;html=1;strokeColor=none;fillColor=none;align=center;verticalAlign=middle;whiteSpace=wrap;rounded=0;" vertex="1" parent="CbJpw0u9HvEEYeUa20cJ-75">
          <mxGeometry x="80" y="-1" width="220" height="30" as="geometry" />
        </mxCell>
        <mxCell id="CbJpw0u9HvEEYeUa20cJ-103" value="Progress Bar" style="text;html=1;strokeColor=none;fillColor=none;align=center;verticalAlign=middle;whiteSpace=wrap;rounded=0;" vertex="1" parent="CbJpw0u9HvEEYeUa20cJ-75">
          <mxGeometry x="80" y="24" width="220" height="30" as="geometry" />
        </mxCell>
        <mxCell id="CbJpw0u9HvEEYeUa20cJ-104" value="House Image" style="text;html=1;strokeColor=none;fillColor=none;align=center;verticalAlign=middle;whiteSpace=wrap;rounded=0;" vertex="1" parent="CbJpw0u9HvEEYeUa20cJ-75">
          <mxGeometry x="-60" y="13" width="220" height="30" as="geometry" />
        </mxCell>
        <mxCell id="CbJpw0u9HvEEYeUa20cJ-105" value="Button" style="text;html=1;strokeColor=none;fillColor=none;align=center;verticalAlign=middle;whiteSpace=wrap;rounded=0;" vertex="1" parent="CbJpw0u9HvEEYeUa20cJ-75">
          <mxGeometry x="330" y="7.8799999999999955" width="60" height="30" as="geometry" />
        </mxCell>
        <mxCell id="CbJpw0u9HvEEYeUa20cJ-76" value="" style="group" vertex="1" connectable="0" parent="1">
          <mxGeometry x="219.5" y="600" width="401" height="51" as="geometry" />
        </mxCell>
        <mxCell id="CbJpw0u9HvEEYeUa20cJ-77" value="" style="rounded=0;whiteSpace=wrap;html=1;" vertex="1" parent="CbJpw0u9HvEEYeUa20cJ-76">
          <mxGeometry width="408" height="51" as="geometry" />
        </mxCell>
        <mxCell id="CbJpw0u9HvEEYeUa20cJ-78" value="" style="whiteSpace=wrap;html=1;aspect=fixed;" vertex="1" parent="CbJpw0u9HvEEYeUa20cJ-76">
          <mxGeometry x="10" y="7.25" width="36.5" height="36.5" as="geometry" />
        </mxCell>
        <mxCell id="CbJpw0u9HvEEYeUa20cJ-79" value="" style="rounded=1;whiteSpace=wrap;html=1;" vertex="1" parent="CbJpw0u9HvEEYeUa20cJ-76">
          <mxGeometry x="90" y="33.75" width="200" height="10" as="geometry" />
        </mxCell>
        <mxCell id="CbJpw0u9HvEEYeUa20cJ-80" value="" style="rounded=1;whiteSpace=wrap;html=1;" vertex="1" parent="CbJpw0u9HvEEYeUa20cJ-76">
          <mxGeometry x="90" y="3.75" width="200" height="20.25" as="geometry" />
        </mxCell>
        <mxCell id="CbJpw0u9HvEEYeUa20cJ-81" value="" style="rounded=1;whiteSpace=wrap;html=1;" vertex="1" parent="CbJpw0u9HvEEYeUa20cJ-76">
          <mxGeometry x="330" y="3.75" width="60" height="10.25" as="geometry" />
        </mxCell>
        <mxCell id="CbJpw0u9HvEEYeUa20cJ-82" value="" style="rounded=1;whiteSpace=wrap;html=1;" vertex="1" parent="CbJpw0u9HvEEYeUa20cJ-76">
          <mxGeometry x="330" y="17.75" width="60" height="10.25" as="geometry" />
        </mxCell>
        <mxCell id="CbJpw0u9HvEEYeUa20cJ-83" value="" style="rounded=1;whiteSpace=wrap;html=1;" vertex="1" parent="CbJpw0u9HvEEYeUa20cJ-76">
          <mxGeometry x="331" y="32.75" width="60" height="10.25" as="geometry" />
        </mxCell>
        <mxCell id="CbJpw0u9HvEEYeUa20cJ-84" value="" style="group" vertex="1" connectable="0" parent="1">
          <mxGeometry x="220" y="660" width="401" height="51" as="geometry" />
        </mxCell>
        <mxCell id="CbJpw0u9HvEEYeUa20cJ-85" value="" style="rounded=0;whiteSpace=wrap;html=1;" vertex="1" parent="CbJpw0u9HvEEYeUa20cJ-84">
          <mxGeometry width="408" height="51" as="geometry" />
        </mxCell>
        <mxCell id="CbJpw0u9HvEEYeUa20cJ-86" value="" style="whiteSpace=wrap;html=1;aspect=fixed;" vertex="1" parent="CbJpw0u9HvEEYeUa20cJ-84">
          <mxGeometry x="10" y="7.25" width="36.5" height="36.5" as="geometry" />
        </mxCell>
        <mxCell id="CbJpw0u9HvEEYeUa20cJ-87" value="" style="rounded=1;whiteSpace=wrap;html=1;" vertex="1" parent="CbJpw0u9HvEEYeUa20cJ-84">
          <mxGeometry x="90" y="33.75" width="200" height="10" as="geometry" />
        </mxCell>
        <mxCell id="CbJpw0u9HvEEYeUa20cJ-88" value="" style="rounded=1;whiteSpace=wrap;html=1;" vertex="1" parent="CbJpw0u9HvEEYeUa20cJ-84">
          <mxGeometry x="90" y="3.75" width="200" height="20.25" as="geometry" />
        </mxCell>
        <mxCell id="CbJpw0u9HvEEYeUa20cJ-89" value="" style="rounded=1;whiteSpace=wrap;html=1;" vertex="1" parent="CbJpw0u9HvEEYeUa20cJ-84">
          <mxGeometry x="330" y="3.75" width="60" height="10.25" as="geometry" />
        </mxCell>
        <mxCell id="CbJpw0u9HvEEYeUa20cJ-90" value="" style="rounded=1;whiteSpace=wrap;html=1;" vertex="1" parent="CbJpw0u9HvEEYeUa20cJ-84">
          <mxGeometry x="330" y="17.75" width="60" height="10.25" as="geometry" />
        </mxCell>
        <mxCell id="CbJpw0u9HvEEYeUa20cJ-91" value="" style="rounded=1;whiteSpace=wrap;html=1;" vertex="1" parent="CbJpw0u9HvEEYeUa20cJ-84">
          <mxGeometry x="331" y="32.75" width="60" height="10.25" as="geometry" />
        </mxCell>
        <mxCell id="CbJpw0u9HvEEYeUa20cJ-92" value="" style="group" vertex="1" connectable="0" parent="1">
          <mxGeometry x="221" y="720" width="401" height="51" as="geometry" />
        </mxCell>
        <mxCell id="CbJpw0u9HvEEYeUa20cJ-93" value="" style="rounded=0;whiteSpace=wrap;html=1;" vertex="1" parent="CbJpw0u9HvEEYeUa20cJ-92">
          <mxGeometry width="408" height="51" as="geometry" />
        </mxCell>
        <mxCell id="CbJpw0u9HvEEYeUa20cJ-94" value="" style="whiteSpace=wrap;html=1;aspect=fixed;" vertex="1" parent="CbJpw0u9HvEEYeUa20cJ-92">
          <mxGeometry x="10" y="7.25" width="36.5" height="36.5" as="geometry" />
        </mxCell>
        <mxCell id="CbJpw0u9HvEEYeUa20cJ-95" value="" style="rounded=1;whiteSpace=wrap;html=1;" vertex="1" parent="CbJpw0u9HvEEYeUa20cJ-92">
          <mxGeometry x="90" y="33.75" width="200" height="10" as="geometry" />
        </mxCell>
        <mxCell id="CbJpw0u9HvEEYeUa20cJ-96" value="" style="rounded=1;whiteSpace=wrap;html=1;" vertex="1" parent="CbJpw0u9HvEEYeUa20cJ-92">
          <mxGeometry x="90" y="3.75" width="200" height="20.25" as="geometry" />
        </mxCell>
        <mxCell id="CbJpw0u9HvEEYeUa20cJ-97" value="" style="rounded=1;whiteSpace=wrap;html=1;" vertex="1" parent="CbJpw0u9HvEEYeUa20cJ-92">
          <mxGeometry x="330" y="3.75" width="60" height="10.25" as="geometry" />
        </mxCell>
        <mxCell id="CbJpw0u9HvEEYeUa20cJ-98" value="" style="rounded=1;whiteSpace=wrap;html=1;" vertex="1" parent="CbJpw0u9HvEEYeUa20cJ-92">
          <mxGeometry x="330" y="17.75" width="60" height="10.25" as="geometry" />
        </mxCell>
        <mxCell id="CbJpw0u9HvEEYeUa20cJ-99" value="" style="rounded=1;whiteSpace=wrap;html=1;" vertex="1" parent="CbJpw0u9HvEEYeUa20cJ-92">
          <mxGeometry x="331" y="32.75" width="60" height="10.25" as="geometry" />
        </mxCell>
        <mxCell id="CbJpw0u9HvEEYeUa20cJ-100" value="&lt;font style=&quot;font-size: 16px;&quot;&gt;Laptop View&lt;/font&gt;" style="text;html=1;strokeColor=none;fillColor=none;align=center;verticalAlign=middle;whiteSpace=wrap;rounded=0;" vertex="1" parent="1">
          <mxGeometry x="310.5" y="473" width="220" height="30" as="geometry" />
        </mxCell>
        <mxCell id="CbJpw0u9HvEEYeUa20cJ-101" value="&lt;font style=&quot;font-size: 14px;&quot;&gt;Money&lt;/font&gt;" style="text;html=1;strokeColor=none;fillColor=none;align=center;verticalAlign=middle;whiteSpace=wrap;rounded=0;" vertex="1" parent="1">
          <mxGeometry x="302" y="510" width="220" height="30" as="geometry" />
        </mxCell>
      </root>
    </mxGraphModel>
  </diagram>
</mxfile>
